<?xml version="1.0" encoding="utf-8"?>
<!-- Generator: Adobe Illustrator 16.0.0, SVG Export Plug-In . SVG Version: 6.00 Build 0)  -->
<!DOCTYPE svg PUBLIC "-//W3C//DTD SVG 1.1//EN" "http://www.w3.org/Graphics/SVG/1.1/DTD/svg11.dtd">
<svg version="1.1" id="Layer_1" xmlns="http://www.w3.org/2000/svg" xmlns:xlink="http://www.w3.org/1999/xlink" x="0px" y="0px"
	 width="309px" height="51px" viewBox="0 0 309 51" enable-background="new 0 0 309 51" xml:space="preserve">
<radialGradient id="SVGID_1_" cx="156.1582" cy="39.8887" r="87.8054" gradientUnits="userSpaceOnUse">
	<stop  offset="0" style="stop-color:#FF6666"/>
	<stop  offset="1" style="stop-color:#FF9900"/>
</radialGradient>
<rect x="32.481" y="28.76" fill="url(#SVGID_1_)" width="247.353" height="22.259"/>
<path fill="#000033" d="M31.874,18.471l-4.788,6.193H14.989c-2.088,0-4.02-0.313-5.795-0.938c-1.777-0.623-3.307-1.48-4.591-2.572
	c-1.284-1.094-2.292-2.389-3.024-3.889s-1.098-3.127-1.098-4.879s0.365-3.354,1.098-4.805c0.732-1.453,1.74-2.701,3.024-3.744
	C5.888,2.793,7.417,1.99,9.194,1.426c1.775-0.564,3.707-0.846,5.795-0.846h16.885l-4.788,6.264H14.989
	c-1.008,0-1.943,0.145-2.808,0.432S10.573,7.965,9.95,8.48c-0.625,0.518-1.117,1.135-1.477,1.855
	c-0.359,0.719-0.54,1.512-0.54,2.375c0,0.865,0.174,1.65,0.522,2.357c0.348,0.709,0.84,1.314,1.476,1.818s1.386,0.895,2.25,1.17
	c0.864,0.277,1.8,0.414,2.808,0.414H31.874z"/>
<path fill="#000033" d="M68.953,0.58L54.661,16.707v7.957h-7.488v-7.992L32.485,0.58h9.576l5.76,6.695
	c0.191,0.217,0.443,0.498,0.756,0.846c0.312,0.348,0.636,0.715,0.973,1.098c0.336,0.385,0.647,0.744,0.936,1.08
	s0.492,0.59,0.611,0.756c0.24-0.336,0.588-0.791,1.045-1.367c0.455-0.576,1.115-1.393,1.979-2.447l5.472-6.66H68.953z"/>
<path fill="#000033" d="M95.413,12.279c1.057,0.313,1.949,0.924,2.682,1.836s1.099,2.088,1.099,3.527
	c0,1.008-0.156,1.939-0.468,2.791c-0.313,0.852-0.841,1.59-1.584,2.213c-0.744,0.625-1.746,1.117-3.006,1.477
	s-2.839,0.541-4.734,0.541H68.233V10.012h21.313c0.551,0,1.037-0.113,1.457-0.342s0.631-0.654,0.631-1.279
	c0-0.6-0.217-1.008-0.648-1.223c-0.432-0.217-0.912-0.324-1.439-0.324H68.233l5.04-6.264h15.948c1.439,0,2.741,0.137,3.906,0.414
	c1.163,0.275,2.159,0.695,2.987,1.26s1.464,1.26,1.908,2.088s0.666,1.793,0.666,2.898c0,0.719-0.097,1.355-0.288,1.906
	c-0.192,0.553-0.438,1.039-0.738,1.459s-0.648,0.768-1.044,1.043C96.224,11.926,95.821,12.135,95.413,12.279z M75.722,15.16v3.311
	h13.716c0.815,0,1.403-0.143,1.764-0.432c0.36-0.287,0.54-0.707,0.54-1.26c0-0.527-0.18-0.93-0.54-1.205
	c-0.36-0.277-0.948-0.414-1.764-0.414H75.722z"/>
<path fill="#000033" d="M130.909,18.471l-4.788,6.193h-23.185V0.58h27.9l-4.824,6.264h-15.588v2.879h19.08l-4.284,5.473h-14.796
	v3.275H130.909z"/>
<path fill="#000033" d="M167.629,24.664h-9.972l-5.364-6.373h-11.448v6.373h-7.452V12.352h20.952c1.152,0,2.124-0.24,2.916-0.721
	c0.792-0.479,1.188-1.139,1.188-1.98c0-0.936-0.359-1.637-1.08-2.105c-0.719-0.467-1.728-0.701-3.023-0.701h-20.952l4.86-6.264
	h15.48c1.367,0,2.783,0.125,4.248,0.377c1.463,0.252,2.795,0.703,3.995,1.35c1.2,0.648,2.19,1.525,2.97,2.629
	c0.78,1.104,1.17,2.52,1.17,4.248c0,0.936-0.144,1.824-0.432,2.664c-0.287,0.84-0.701,1.596-1.242,2.268
	c-0.539,0.672-1.2,1.242-1.979,1.711c-0.78,0.467-1.662,0.797-2.646,0.988c0.407,0.313,0.863,0.709,1.367,1.189
	s1.176,1.139,2.016,1.979L167.629,24.664z"/>
<path fill="#000033" d="M194.7,25.059c-0.48,0-0.953-0.078-1.422-0.232c-0.468-0.156-0.99-0.51-1.566-1.063l-14.76-13.248v14.148
	h-6.768V4.684c0-0.793,0.113-1.477,0.342-2.053s0.527-1.043,0.9-1.404c0.371-0.359,0.804-0.623,1.296-0.791
	c0.491-0.168,1.001-0.252,1.53-0.252c0.455,0,0.918,0.078,1.385,0.234c0.469,0.156,1.002,0.51,1.603,1.061l14.761,13.248V0.58h6.803
	v19.943c0,0.791-0.113,1.477-0.342,2.053c-0.229,0.574-0.527,1.049-0.899,1.422c-0.372,0.371-0.81,0.643-1.313,0.809
	C195.745,24.975,195.228,25.059,194.7,25.059z"/>
<path fill="#000033" d="M231.168,18.471l-4.788,6.193h-23.184V0.58h27.899l-4.823,6.264h-15.589v2.879h19.08l-4.284,5.473h-14.796
	v3.275H231.168z"/>
<path fill="#000033" d="M263.64,0.58l-4.824,6.264h-8.605v17.82h-7.45V6.844h-11.305l4.824-6.264H263.64z"/>
<path fill="#000033" d="M273.468,24.664h-7.453V0.58h7.453V24.664z"/>
<path fill="#000033" d="M308.747,18.471l-4.789,6.193h-12.096c-2.088,0-4.02-0.313-5.795-0.938c-1.777-0.623-3.307-1.48-4.592-2.572
	c-1.283-1.094-2.291-2.389-3.023-3.889s-1.098-3.127-1.098-4.879s0.365-3.354,1.098-4.805c0.732-1.453,1.74-2.701,3.023-3.744
	c1.285-1.045,2.814-1.848,4.592-2.412c1.775-0.564,3.707-0.846,5.795-0.846h16.885l-4.789,6.264h-12.096
	c-1.008,0-1.943,0.145-2.809,0.432c-0.863,0.287-1.607,0.689-2.23,1.205c-0.625,0.518-1.117,1.135-1.477,1.855
	c-0.359,0.719-0.541,1.512-0.541,2.375c0,0.865,0.174,1.65,0.523,2.357c0.348,0.709,0.84,1.314,1.475,1.818
	c0.637,0.504,1.387,0.895,2.25,1.17c0.865,0.277,1.801,0.414,2.809,0.414H308.747z"/>
<path fill="#FFFFFF" d="M132.527,46.62h-6.262l-3.366-4.002h-7.189v4.002h-4.679v-7.73h13.155c0.723,0,1.334-0.15,1.831-0.452
	c0.497-0.301,0.746-0.716,0.746-1.244c0-0.588-0.227-1.028-0.679-1.321c-0.451-0.294-1.084-0.44-1.898-0.44h-13.155l3.052-3.934
	h9.72c0.858,0,1.747,0.079,2.667,0.237c0.918,0.158,1.755,0.44,2.509,0.848c0.753,0.406,1.376,0.957,1.865,1.65
	c0.489,0.692,0.734,1.582,0.734,2.667c0,0.587-0.091,1.145-0.271,1.672c-0.18,0.527-0.44,1.003-0.779,1.424
	c-0.34,0.423-0.754,0.781-1.243,1.075c-0.49,0.293-1.044,0.5-1.662,0.62c0.257,0.196,0.543,0.445,0.859,0.747
	s0.738,0.715,1.266,1.242L132.527,46.62z"/>
<polygon fill="#FFFFFF" points="151.764,42.731 148.758,46.62 134.2,46.62 134.2,31.498 151.718,31.498 148.689,35.432 
	138.901,35.432 138.901,37.239 150.881,37.239 148.191,40.675 138.901,40.675 138.901,42.731 "/>
<polygon fill="#FFFFFF" points="172.151,31.498 169.122,35.432 163.72,35.432 163.72,46.62 159.041,46.62 159.041,35.432 
	151.943,35.432 154.973,31.498 "/>
<path fill="#FFFFFF" d="M175.204,46.62l2.824-3.889h3.798c0.452,0,0.923,0,1.413,0c0.488,0,0.916,0.017,1.276,0.045
	c-0.211-0.271-0.456-0.612-0.733-1.027c-0.28-0.414-0.547-0.803-0.804-1.165l-2.713-4l-7.097,10.036h-5.538l9.697-13.676
	c0.316-0.436,0.716-0.828,1.198-1.175c0.481-0.347,1.092-0.521,1.83-0.521c0.709,0,1.301,0.162,1.774,0.486
	c0.475,0.324,0.878,0.728,1.209,1.209l9.449,13.676H175.204z"/>
<rect x="194.529" y="31.498" fill="#FFFFFF" width="4.68" height="15.122"/>
<polygon fill="#FFFFFF" points="218.512,42.731 215.483,46.62 202.124,46.62 202.124,31.498 206.803,31.498 206.803,42.731 "/>
</svg>
