<?xml version="1.0" encoding="utf-8"?>
<!-- Generator: Adobe Illustrator 16.0.0, SVG Export Plug-In . SVG Version: 6.00 Build 0)  -->
<!DOCTYPE svg PUBLIC "-//W3C//DTD SVG 1.1//EN" "http://www.w3.org/Graphics/SVG/1.1/DTD/svg11.dtd">
<svg version="1.1" id="Layer_1" xmlns="http://www.w3.org/2000/svg" xmlns:xlink="http://www.w3.org/1999/xlink" x="0px" y="0px"
	 width="128px" height="55px" viewBox="0 0 128 55" enable-background="new 0 0 128 55" xml:space="preserve">
<radialGradient id="SVGID_1_" cx="31.6904" cy="27.1045" r="28.3527" gradientTransform="matrix(1.0308 0 0 1 2.8889 0)" gradientUnits="userSpaceOnUse">
	<stop  offset="0" style="stop-color:#FF6666"/>
	<stop  offset="1" style="stop-color:#FF9900"/>
</radialGradient>
<path fill="url(#SVGID_1_)" stroke="#FFFFFF" stroke-width="2" stroke-miterlimit="10" d="M67.11,39.685L57.485,53H33.167
	c-4.198,0-8.082-0.67-11.653-2.013c-3.571-1.341-6.646-3.187-9.228-5.536c-2.582-2.347-4.607-5.134-6.079-8.359
	C4.735,33.866,4,30.369,4,26.602c0-3.766,0.735-7.211,2.208-10.335c1.471-3.122,3.497-5.806,6.079-8.051
	c2.581-2.246,5.657-3.974,9.228-5.187c3.571-1.212,7.455-1.819,11.653-1.819H67.11l-9.625,13.47H33.167
	c-2.026,0-3.909,0.31-5.645,0.93c-1.738,0.619-3.233,1.484-4.488,2.593c-1.255,1.111-2.243,2.438-2.967,3.987
	c-0.724,1.548-1.086,3.251-1.086,5.109c0,1.857,0.35,3.549,1.05,5.07c0.699,1.522,1.688,2.825,2.968,3.91
	c1.278,1.082,2.785,1.923,4.523,2.516c1.736,0.594,3.619,0.89,5.645,0.89H67.11z"/>
<path fill="#000033" stroke="#FFFFFF" stroke-width="2" stroke-miterlimit="10" d="M126.002,53h-20.047L95.17,39.298H72.154V53
	h-14.98V26.523h42.121c2.316,0,4.271-0.515,5.863-1.547c1.592-1.032,2.389-2.451,2.389-4.258c0-2.013-0.725-3.522-2.172-4.528
	s-3.473-1.51-7.084-1.51H56.169l10.775-13.47h31.122c2.75,0,5.596,0.271,8.539,0.813c2.943,0.542,5.619,1.509,8.033,2.903
	c2.412,1.393,4.402,3.278,5.973,5.651c1.566,2.374,2.352,5.419,2.352,9.135c0,2.013-0.291,3.923-0.869,5.729
	c-0.578,1.808-1.412,3.433-2.496,4.877c-1.086,1.446-2.414,2.672-3.982,3.677c-1.568,1.007-3.34,1.718-5.318,2.13
	c0.82,0.671,1.736,1.522,2.75,2.555c1.014,1.033,2.363,2.452,4.053,4.257L126.002,53z"/>
</svg>
