<?xml version="1.0" encoding="utf-8"?>
<!-- Generator: Adobe Illustrator 16.0.0, SVG Export Plug-In . SVG Version: 6.00 Build 0)  -->
<!DOCTYPE svg PUBLIC "-//W3C//DTD SVG 1.1//EN" "http://www.w3.org/Graphics/SVG/1.1/DTD/svg11.dtd">
<svg version="1.1" id="Layer_1" xmlns="http://www.w3.org/2000/svg" xmlns:xlink="http://www.w3.org/1999/xlink" x="0px" y="0px"
	 width="483px" height="137px" viewBox="0 0 483 137" enable-background="new 0 0 483 137" xml:space="preserve">
<path fill="#02ECC7" d="M50.862,39.55l-7.315,9.46h-18.48c-3.19,0-6.141-0.478-8.853-1.431c-2.715-0.953-5.052-2.263-7.014-3.931
	c-1.962-1.669-3.501-3.649-4.621-5.941c-1.119-2.292-1.677-4.775-1.677-7.452c0-2.676,0.558-5.123,1.677-7.342
	c1.119-2.218,2.659-4.126,4.621-5.72c1.962-1.596,4.298-2.823,7.014-3.685c2.712-0.862,5.663-1.292,8.853-1.292h25.795l-7.315,9.569
	h-18.48c-1.54,0-2.969,0.221-4.289,0.66c-1.321,0.44-2.458,1.055-3.409,1.842c-0.955,0.79-1.707,1.732-2.256,2.833
	c-0.549,1.099-0.825,2.309-0.825,3.628c0,1.322,0.266,2.521,0.798,3.603c0.531,1.082,1.283,2.008,2.254,2.778
	c0.971,0.77,2.117,1.365,3.438,1.787c1.32,0.422,2.75,0.633,4.289,0.633H50.862z"/>
<path fill="#02ECC7" d="M107.509,12.216L85.675,36.854v12.156h-11.44v-12.21L51.796,12.216h14.63l8.799,10.229
	c0.292,0.331,0.677,0.761,1.155,1.292c0.476,0.533,0.971,1.092,1.486,1.678c0.513,0.586,0.989,1.137,1.43,1.65
	c0.44,0.513,0.752,0.899,0.934,1.154c0.367-0.513,0.898-1.21,1.597-2.09c0.695-0.88,1.704-2.126,3.024-3.739l8.359-10.175H107.509z"
	/>
<path fill="#02ECC7" d="M147.933,30.09c1.614,0.478,2.978,1.411,4.097,2.805c1.119,1.394,1.679,3.19,1.679,5.391
	c0,1.54-0.239,2.961-0.715,4.262c-0.478,1.301-1.285,2.429-2.42,3.382c-1.137,0.953-2.667,1.705-4.592,2.254
	c-1.924,0.55-4.337,0.827-7.233,0.827H106.41V26.625h32.56c0.841,0,1.584-0.173,2.226-0.522s0.964-1,0.964-1.953
	c0-0.916-0.331-1.54-0.991-1.869c-0.659-0.332-1.394-0.496-2.199-0.496h-32.56l7.7-9.569h24.365c2.199,0,4.188,0.21,5.968,0.633
	c1.777,0.421,3.299,1.062,4.564,1.924c1.265,0.863,2.236,1.925,2.915,3.19s1.018,2.741,1.018,4.428c0,1.098-0.148,2.071-0.44,2.914
	c-0.294,0.843-0.668,1.586-1.128,2.228s-0.991,1.174-1.595,1.595C149.171,29.55,148.557,29.871,147.933,30.09z M117.85,34.491v5.059
	h20.954c1.246,0,2.144-0.219,2.695-0.661c0.55-0.438,0.825-1.08,0.825-1.924c0-0.806-0.274-1.42-0.825-1.841
	c-0.551-0.422-1.449-0.632-2.695-0.632H117.85z"/>
<path fill="#02ECC7" d="M202.162,39.55l-7.315,9.46h-35.42V12.216h42.625l-7.37,9.569h-23.814v4.4h29.149l-6.545,8.359h-22.604
	v5.005H202.162z"/>
<path fill="#02ECC7" d="M258.26,49.011h-15.234l-8.195-9.736h-17.49v9.736h-11.385V30.2h32.01c1.76,0,3.245-0.367,4.455-1.101
	c1.21-0.731,1.814-1.74,1.814-3.024c0-1.431-0.549-2.502-1.65-3.218c-1.098-0.713-2.639-1.071-4.619-1.071h-32.01l7.425-9.569h23.65
	c2.089,0,4.252,0.191,6.49,0.576c2.235,0.385,4.27,1.074,6.104,2.063c1.833,0.989,3.347,2.329,4.537,4.015
	c1.192,1.686,1.787,3.849,1.787,6.49c0,1.429-0.219,2.787-0.659,4.07c-0.438,1.283-1.071,2.438-1.898,3.464
	c-0.823,1.026-1.833,1.898-3.024,2.614c-1.192,0.713-2.54,1.218-4.042,1.512c0.622,0.477,1.319,1.082,2.088,1.815
	c0.77,0.734,1.796,1.741,3.08,3.024L258.26,49.011z"/>
<path fill="#02ECC7" d="M299.618,49.615c-0.734,0-1.456-0.119-2.172-0.356c-0.714-0.239-1.513-0.779-2.393-1.624l-22.549-20.239
	v21.615h-10.339V18.485c0-1.21,0.173-2.255,0.522-3.136c0.349-0.879,0.806-1.593,1.375-2.144c0.567-0.55,1.228-0.953,1.98-1.21
	c0.75-0.256,1.529-0.385,2.338-0.385c0.695,0,1.402,0.119,2.115,0.358c0.716,0.239,1.531,0.779,2.448,1.622l22.551,20.24V12.216
	h10.393v30.468c0,1.21-0.173,2.256-0.522,3.136c-0.349,0.879-0.806,1.604-1.374,2.172s-1.237,0.981-2.007,1.237
	C301.214,49.485,300.423,49.615,299.618,49.615z"/>
<path fill="#02ECC7" d="M355.331,39.55l-7.315,9.46h-35.418V12.216h42.623l-7.369,9.569h-23.815v4.4h29.149l-6.545,8.359h-22.604
	v5.005H355.331z"/>
<path fill="#02ECC7" d="M404.939,12.216l-7.37,9.569h-13.147v27.225H373.04V21.786H355.77l7.37-9.569H404.939z"/>
<path fill="#02ECC7" d="M419.954,49.011h-11.387V12.216h11.387V49.011z"/>
<path fill="#02ECC7" d="M473.852,39.55l-7.316,9.46h-18.479c-3.189,0-6.141-0.478-8.853-1.431c-2.716-0.953-5.052-2.263-7.016-3.931
	c-1.96-1.669-3.5-3.649-4.619-5.941c-1.118-2.292-1.677-4.775-1.677-7.452c0-2.676,0.559-5.123,1.677-7.342
	c1.119-2.218,2.659-4.126,4.619-5.72c1.964-1.596,4.3-2.823,7.016-3.685c2.712-0.862,5.663-1.292,8.853-1.292h25.796l-7.316,9.569
	h-18.479c-1.539,0-2.969,0.221-4.29,0.66c-1.319,0.44-2.456,1.055-3.408,1.842c-0.955,0.79-1.706,1.732-2.256,2.833
	c-0.549,1.099-0.826,2.309-0.826,3.628c0,1.322,0.266,2.521,0.8,3.603c0.531,1.082,1.283,2.008,2.253,2.778
	c0.973,0.77,2.118,1.365,3.438,1.787c1.321,0.422,2.751,0.633,4.29,0.633H473.852z"/>
<path fill="#03498D" d="M263.832,86.485h-15.235l-8.194-9.736h-17.491v9.736h-11.383v-18.81h32.008c1.76,0,3.246-0.367,4.455-1.101
	c1.211-0.731,1.816-1.74,1.816-3.024c0-1.431-0.551-2.502-1.65-3.218c-1.1-0.713-2.64-1.071-4.621-1.071h-32.008l7.424-9.569h23.65
	c2.089,0,4.252,0.191,6.49,0.576c2.235,0.385,4.27,1.074,6.105,2.063c1.833,0.989,3.345,2.329,4.537,4.015
	c1.192,1.686,1.788,3.849,1.788,6.49c0,1.429-0.22,2.787-0.661,4.07c-0.438,1.283-1.071,2.438-1.896,3.464
	c-0.825,1.026-1.833,1.897-3.024,2.614c-1.193,0.713-2.539,1.217-4.043,1.511c0.624,0.478,1.319,1.082,2.088,1.816
	c0.771,0.734,1.796,1.741,3.081,3.024L263.832,86.485z"/>
<polygon fill="#03498D" points="310.634,77.024 303.321,86.485 267.901,86.485 267.901,49.691 310.524,49.691 303.155,59.26 
	279.339,59.26 279.339,63.66 308.489,63.66 301.945,72.019 279.339,72.019 279.339,77.024 "/>
<polygon fill="#03498D" points="360.242,49.691 352.872,59.26 339.729,59.26 339.729,86.485 328.344,86.485 328.344,59.26 
	311.074,59.26 318.444,49.691 "/>
<path fill="#03498D" d="M367.668,86.485l6.875-9.46h9.237c1.102,0,2.247,0,3.438,0s2.229,0.038,3.109,0.109
	c-0.517-0.659-1.11-1.492-1.787-2.5c-0.681-1.008-1.331-1.954-1.954-2.833l-6.601-9.735l-17.268,24.42h-13.474l23.593-33.274
	c0.771-1.064,1.741-2.016,2.916-2.86c1.172-0.843,2.657-1.265,4.453-1.265c1.725,0,3.163,0.394,4.317,1.182
	c1.155,0.791,2.137,1.77,2.942,2.944l22.99,33.274H367.668z"/>
<rect x="414.69" y="49.691" fill="#03498D" width="11.387" height="36.794"/>
<polygon fill="#03498D" points="473.043,77.024 465.673,86.485 433.17,86.485 433.17,49.691 444.553,49.691 444.553,77.024 "/>
<ellipse fill="none" stroke="#02ECC7" stroke-miterlimit="10" cx="170.546" cy="74.961" rx="8.013" ry="6.656"/>
<ellipse fill="none" stroke="#02ECC7" stroke-miterlimit="10" cx="112.457" cy="113.436" rx="7.981" ry="6.874"/>
<line fill="none" stroke="#03498D" stroke-miterlimit="10" x1="118.969" y1="109.467" x2="129.77" y2="98.665"/>
<line fill="none" stroke="#03498D" stroke-miterlimit="10" x1="139.638" y1="98.665" x2="161.229" y2="120.255"/>
<circle fill="none" stroke="#02ECC7" stroke-miterlimit="10" cx="166.772" cy="125.688" r="7.079"/>
<line fill="none" stroke="#03498D" stroke-miterlimit="10" x1="140.205" y1="64.703" x2="136.218" y2="86.527"/>
<ellipse fill="none" stroke="#02ECC7" stroke-miterlimit="10" cx="141.733" cy="60.394" rx="5.171" ry="4.309"/>
<circle fill="none" stroke="#02ECC7" stroke-miterlimit="10" cx="134.689" cy="93.606" r="7.079"/>
<line fill="none" stroke="#03498D" stroke-miterlimit="10" x1="162.19" y1="77.776" x2="141.769" y2="90.55"/>
<line fill="none" stroke="#03498D" stroke-miterlimit="10" x1="109.037" y1="66.559" x2="128.532" y2="88.26"/>
<circle fill="none" stroke="#02ECC7" stroke-miterlimit="10" cx="104.694" cy="62.411" r="5.675"/>
</svg>
