<?xml version="1.0" standalone="no"?>
<!DOCTYPE svg PUBLIC "-//W3C//DTD SVG 20010904//EN"
 "http://www.w3.org/TR/2001/REC-SVG-20010904/DTD/svg10.dtd">
<svg version="1.0" xmlns="http://www.w3.org/2000/svg"
 width="200.000000pt" height="171.000000pt" viewBox="0 0 200.000000 171.000000"
 preserveAspectRatio="xMidYMid meet">

<g transform="translate(0.000000,171.000000) scale(0.100000,-0.100000)"
fill="#000000" stroke="none">
<path d="M897 1430 c-55 -14 -128 -54 -164 -90 -18 -18 -33 -36 -33 -40 0 -4
16 -15 35 -25 l34 -19 43 31 c122 87 280 80 383 -18 l31 -29 38 26 38 26 -38
40 c-63 64 -147 99 -246 104 -46 2 -100 -1 -121 -6z"/>
<path d="M629 1193 c-74 -190 12 -410 195 -497 28 -14 68 -28 89 -32 l37 -6 0
44 c0 43 -1 44 -48 60 -169 60 -252 237 -187 399 4 12 -4 22 -30 38 -20 11
-38 21 -41 21 -2 0 -9 -12 -15 -27z"/>
<path d="M800 1036 l0 -176 40 0 40 0 0 71 c0 85 10 83 51 -8 28 -64 30 -65
60 -59 17 3 35 6 39 6 4 0 18 25 30 55 12 30 28 59 36 66 12 10 14 0 14 -57
l0 -69 38 0 37 0 3 173 2 172 -50 0 -51 0 -44 -95 c-24 -52 -47 -95 -52 -95
-4 0 -26 42 -49 93 l-41 92 -51 3 -52 3 0 -175z"/>
<path d="M1307 1187 l-29 -23 12 -62 c16 -82 -4 -166 -58 -237 -34 -44 -107
-93 -164 -109 -14 -4 -18 -16 -18 -51 l0 -47 33 7 c61 13 142 59 190 107 102
102 138 253 95 401 -13 43 -22 45 -61 14z"/>
<path d="M963 560 c-13 -5 -23 -14 -23 -20 0 -13 3 -13 35 2 19 8 31 8 51 -1
28 -12 44 -7 28 9 -15 15 -66 21 -91 10z"/>
<path d="M152 478 c1 -42 3 -51 5 -25 5 46 18 47 37 2 8 -19 20 -35 26 -35 6
0 18 16 27 35 21 45 31 44 36 -2 2 -26 4 -17 5 25 2 74 -17 85 -42 22 -9 -22
-20 -40 -24 -40 -5 0 -17 18 -27 40 -28 62 -45 52 -43 -22z"/>
<path d="M363 480 l2 -60 60 2 60 2 -52 3 -53 4 0 49 0 49 53 4 52 3 -62 2
-62 2 2 -60z"/>
<path d="M563 533 c20 -2 54 -2 75 0 20 2 3 4 -38 4 -41 0 -58 -2 -37 -4z"/>
<path d="M730 480 c0 -33 4 -60 10 -60 6 0 10 25 10 56 l0 55 43 -3 c34 -2 42
-7 42 -23 0 -13 -8 -21 -23 -23 l-22 -3 21 -30 c23 -33 46 -40 29 -9 -9 16 -7
24 5 36 9 9 15 26 13 38 -3 18 -11 21 -65 24 l-63 3 0 -61z"/>
<path d="M1140 480 c0 -74 18 -80 22 -8 3 57 14 66 64 54 33 -9 30 -34 -3 -42
-47 -10 -50 -13 -9 -11 46 2 67 26 47 51 -9 11 -30 16 -67 16 l-54 0 0 -60z"/>
<path d="M1335 480 c-16 -33 -26 -63 -22 -66 3 -4 18 19 34 50 15 31 30 56 34
56 4 0 15 -20 24 -45 10 -25 25 -50 33 -57 17 -14 17 -14 -18 65 -15 34 -31
57 -41 57 -9 0 -27 -24 -44 -60z"/>
<path d="M1522 478 l1 -63 6 55 6 55 40 0 c30 0 41 -4 43 -18 3 -12 -4 -20
-17 -24 -12 -3 -21 -8 -21 -12 1 -14 39 -55 46 -49 4 4 1 15 -6 23 -11 13 -10
18 4 28 11 8 17 23 14 38 -3 22 -8 24 -60 27 l-58 3 2 -63z"/>
<path d="M1715 480 c0 -33 3 -60 8 -60 4 0 7 27 7 60 0 33 -3 60 -7 60 -5 0
-8 -27 -8 -60z"/>
<path d="M1780 515 l-23 -24 29 -35 c16 -19 35 -35 43 -35 11 -1 9 5 -6 22
-35 38 -36 47 -12 73 17 18 19 24 7 24 -8 0 -25 -11 -38 -25z"/>
<path d="M917 499 c-8 -29 7 -64 35 -83 25 -18 38 -20 38 -7 0 5 -8 12 -18 16
-24 7 -45 51 -37 76 4 11 2 19 -3 19 -5 0 -12 -9 -15 -21z"/>
<path d="M1070 520 c-1 -3 -4 -18 -6 -35 -2 -17 -15 -40 -30 -53 -14 -13 -24
-26 -20 -29 7 -8 56 24 62 42 5 13 0 85 -6 75z"/>
<path d="M590 465 c0 -25 5 -45 10 -45 6 0 10 20 10 45 0 25 -4 45 -10 45 -5
0 -10 -20 -10 -45z"/>
<path d="M404 481 c3 -5 17 -8 31 -8 14 0 25 3 25 8 0 5 -14 9 -31 9 -16 0
-28 -4 -25 -9z"/>
</g>
</svg>
