<?xml version="1.0" standalone="no"?>
<!DOCTYPE svg PUBLIC "-//W3C//DTD SVG 20010904//EN"
 "http://www.w3.org/TR/2001/REC-SVG-20010904/DTD/svg10.dtd">
<svg version="1.0" xmlns="http://www.w3.org/2000/svg"
 width="400.000000pt" height="400.000000pt" viewBox="0 0 400.000000 400.000000"
 preserveAspectRatio="xMidYMid meet">

<g transform="translate(0.000000,400.000000) scale(0.100000,-0.100000)"
fill="#000000" stroke="none">
<path d="M1345 3111 c-139 -18 -215 -64 -262 -159 l-28 -57 0 -320 c0 -373 3
-393 74 -466 73 -74 134 -93 311 -93 217 -1 303 33 365 145 l30 54 3 315 c2
209 0 332 -8 367 -22 102 -94 172 -205 202 -55 14 -208 21 -280 12z m145 -241
c19 -19 20 -33 20 -303 0 -311 -3 -327 -58 -327 -68 1 -72 19 -72 325 0 262 4
297 34 317 20 14 56 8 76 -12z"/>
<path d="M2205 3111 c-147 -19 -235 -77 -271 -182 -17 -48 -19 -86 -19 -364 0
-341 3 -365 58 -437 66 -86 186 -123 372 -115 61 3 133 13 162 21 71 22 132
71 162 131 26 49 26 52 31 345 6 383 0 430 -68 505 -37 41 -69 60 -130 79 -63
18 -215 27 -297 17z m146 -240 l24 -19 0 -285 c0 -266 -1 -286 -19 -306 -22
-25 -68 -28 -90 -6 -24 25 -27 65 -24 338 3 258 3 259 27 278 29 24 53 24 82
0z"/>
<path d="M139 3078 c0 -7 -1 -48 0 -92 0 -61 4 -83 18 -98 16 -18 18 -48 21
-310 3 -271 2 -293 -17 -331 -22 -48 -24 -57 -22 -150 l1 -69 323 4 c310 3
324 4 372 26 27 13 60 33 73 45 81 75 102 269 43 386 -23 44 -50 66 -109 87
-20 7 -32 13 -26 14 26 1 102 63 123 101 48 85 35 247 -25 319 -15 17 -45 41
-68 53 -40 21 -53 22 -373 25 -268 2 -333 0 -334 -10z m450 -209 c39 -14 51
-35 51 -89 0 -23 -4 -50 -10 -60 -10 -20 -59 -40 -96 -40 -24 0 -24 2 -24 100
0 98 0 100 24 100 12 0 37 -5 55 -11z m4 -394 c71 -14 73 -188 2 -215 -15 -6
-40 -10 -56 -10 l-29 0 0 113 c0 63 3 117 6 120 4 4 18 4 30 2 13 -3 34 -7 47
-10z"/>
<path d="M2779 3078 c-2 -7 -3 -113 -1 -235 l3 -223 114 0 115 0 0 109 c0 113
9 141 46 141 13 0 14 -43 12 -309 -3 -278 -5 -311 -20 -328 -14 -16 -18 -38
-18 -111 l0 -92 200 0 200 0 0 93 c0 66 -4 99 -15 113 -21 28 -22 634 -1 634
33 0 46 -41 46 -147 l0 -103 115 0 115 0 0 235 0 235 -454 0 c-355 0 -455 -3
-457 -12z"/>
<path d="M140 1775 c0 -54 4 -95 10 -95 25 0 31 -83 28 -361 -3 -257 -5 -289
-20 -306 -15 -16 -18 -38 -18 -112 l0 -93 323 4 c303 3 325 4 368 24 62 29
113 83 133 140 18 55 21 189 5 247 -15 56 -73 116 -125 129 l-43 12 37 17 c93
42 140 136 129 257 -8 79 -38 144 -83 178 -64 49 -102 54 -436 54 l-308 0 0
-95z m442 -125 c45 -13 58 -34 58 -93 0 -61 -23 -88 -83 -94 l-47 -6 0 102 c0
113 -1 111 72 91z m30 -401 c24 -13 41 -74 35 -127 -7 -60 -41 -92 -98 -92
l-39 0 0 120 0 120 43 -6 c23 -4 50 -11 59 -15z"/>
<path d="M1180 1860 c0 -19 -138 -757 -150 -799 -6 -22 -15 -43 -20 -46 -6 -3
-10 -51 -10 -106 l0 -99 180 0 180 0 0 95 c0 55 -4 95 -10 95 -17 0 -39 45
-33 68 5 21 11 22 89 22 l84 0 0 -30 c0 -17 -9 -39 -20 -50 -17 -17 -20 -33
-20 -110 l0 -90 205 0 205 0 0 90 c0 75 -3 96 -20 118 -14 20 -42 139 -102
440 l-83 412 -237 0 c-159 0 -238 -3 -238 -10z m245 -399 c14 -78 25 -148 25
-156 0 -11 -13 -15 -56 -15 -55 0 -56 0 -50 28 2 15 15 87 27 159 12 73 24
131 26 129 2 -1 14 -67 28 -145z"/>
<path d="M1930 1778 c1 -66 5 -99 15 -112 22 -29 22 -623 0 -652 -10 -13 -14
-46 -15 -111 l0 -93 200 0 200 0 0 95 c0 52 -4 95 -8 95 -19 0 -32 56 -32 142
l0 91 37 -6 c72 -12 77 -25 83 -220 3 -95 9 -178 14 -185 5 -9 54 -12 182 -12
l174 0 0 95 c0 52 -4 95 -9 95 -17 0 -30 56 -33 145 -5 116 -19 143 -87 176
-50 25 -52 27 -27 33 41 10 93 63 113 114 13 33 18 73 17 132 0 99 -24 160
-80 209 -62 55 -105 61 -441 61 l-303 0 0 -92z m439 -129 c38 -13 51 -41 51
-108 0 -69 -27 -101 -86 -101 l-44 0 0 110 c0 109 0 110 24 110 12 0 38 -5 55
-11z"/>
<path d="M2850 1779 c0 -76 3 -94 18 -105 16 -11 17 -39 17 -327 0 -286 -2
-317 -17 -334 -14 -16 -18 -38 -18 -111 l0 -92 165 0 165 0 0 92 c0 73 -4 95
-17 111 -15 16 -19 42 -21 146 -2 84 0 123 7 116 8 -9 85 -188 167 -392 l29
-73 157 0 157 0 3 419 c3 382 5 421 21 438 13 16 17 38 17 111 l0 92 -170 0
-170 0 0 -86 c0 -71 4 -90 20 -111 18 -23 20 -41 20 -151 0 -69 -3 -123 -6
-119 -3 3 -46 108 -94 234 l-87 228 -182 3 -181 2 0 -91z"/>
<path d="M3785 1845 c-14 -13 -25 -31 -25 -40 0 -31 31 -74 52 -75 4 0 -4 11
-18 26 -20 19 -24 31 -19 52 19 80 120 65 113 -17 -2 -26 -9 -39 -28 -48 -16
-8 -19 -13 -9 -13 45 0 66 83 29 120 -27 27 -66 25 -95 -5z"/>
<path d="M3811 1798 c1 -24 3 -35 6 -25 2 9 8 17 13 17 5 0 14 -8 19 -17 10
-17 10 -17 11 0 0 11 -9 21 -20 24 -11 3 -20 12 -20 19 0 16 26 19 33 4 3 -6
4 -5 3 2 -1 7 -12 14 -24 16 -20 3 -22 -1 -21 -40z"/>
</g>
</svg>
